HIERARCHY
ROOT simHips
{
  OFFSET -203.826 99.9844 1.11546
  CHANNELS 6 Xposition Yposition Zposition Zrotation Xrotation Yrotation
  JOINT simSpine
  {
    OFFSET -0.000355721 21.3001 -0.016921
    CHANNELS 3 Zrotation Xrotation Yrotation
    JOINT simLeftArm
    {
      OFFSET 13.5181 21.3012 0
      CHANNELS 3 Zrotation Xrotation Yrotation
      JOINT simLeftForeArm
      {
        OFFSET 24.5783 0 0
        CHANNELS 3 Zrotation Xrotation Yrotation
        JOINT simLeftHand
        {
          OFFSET 24.5783 0 0
          CHANNELS 3 Zrotation Xrotation Yrotation
          End Site
          {
            OFFSET 7.32568 1.52588e-05 0.0169305
          }
        }
      }
    }
    JOINT simHead
    {
      OFFSET 0 27.4458 -0.00489235
      CHANNELS 3 Zrotation Xrotation Yrotation
      End Site
      {
        OFFSET 0 0 0
      }
    }
    JOINT simRightArm
    {
      OFFSET -13.5174 21.3012 0
      CHANNELS 3 Zrotation Xrotation Yrotation
      JOINT simRightForeArm
      {
        OFFSET -24.5783 0 0
        CHANNELS 3 Zrotation Xrotation Yrotation
        JOINT simRightHand
        {
          OFFSET -24.5783 0 0
          CHANNELS 3 Zrotation Xrotation Yrotation
          End Site
          {
            OFFSET -7.32568 1.52588e-05 0.0169305
          }
        }
      }
    }
  }
  JOINT simRightUpLeg
  {
    OFFSET -8.44614 -9.41038 0.835684
    CHANNELS 3 Zrotation Xrotation Yrotation
    JOINT simRightLeg
    {
      OFFSET 0 -40.9639 0
      CHANNELS 3 Zrotation Xrotation Yrotation
      JOINT simRightFoot
      {
        OFFSET 0 -40.9639 0
        CHANNELS 3 Zrotation Xrotation Yrotation
        End Site
        {
          OFFSET 0.50614 -9.67405 14.6709
        }
      }
    }
  }
  JOINT simLeftUpLeg
  {
    OFFSET 8.44614 -9.41038 0.835684
    CHANNELS 3 Zrotation Xrotation Yrotation
    JOINT simLeftLeg
    {
      OFFSET 0 -40.9639 0
      CHANNELS 3 Zrotation Xrotation Yrotation
      JOINT simLeftFoot
      {
        OFFSET 0 -40.9639 0
        CHANNELS 3 Zrotation Xrotation Yrotation
        End Site
        {
          OFFSET -0.50614 -9.67405 14.6709
        }
      }
    }
  }
}
MOTION
Frames:	17
Frame Time:	0.0333333
-172.421 94.1853 -15.4549 -2.87098 0.282883 30.4489 1.28741 17.421 -0.485702 -56.4737 -1.13673 -19.2702 46.7655 -17.0153 -72.8423 14.7498 -15.2168 -15.539 -8.91128 -3.0174 40.7879 41.2054 54.8807 29.0346 -37.828 -22.2911 88.5595 -2.63186 -15.4422 19.6145 -11.7858 -13.3149 5.21437 -0.0237943 29.0127 -0.251524 17.2147 -17.6449 7.41386 26.0461 -18.5565 19.2728 -0.705118 25.5708 -0.259012 -8.93111 -1.68707 -3.42279 
-172.577 94.4538 -15.7879 -2.96144 0.857511 28.3031 1.26895 17.3426 0.758155 -58.6414 -0.878564 -17.9122 46.9095 -17.1863 -73.1397 14.4748 -15.3962 -15.4807 -9.69586 -3.59645 41.7291 38.4308 56.3798 30.0984 -37.6806 -22.0102 87.9552 -2.58232 -15.31 19.6207 -11.8793 -13.955 6.09717 -0.0635514 27.2383 -0.178088 17.1976 -16.1496 8.45458 25.7894 -17.9828 19.6139 -0.641226 24.7454 -0.254291 -8.19304 -1.43911 -1.58328 
-172.419 94.8581 -15.9852 -2.78382 1.48127 26.9955 0.986706 17.2106 0.879327 -58.8124 -1.34111 -16.8217 46.8813 -17.1531 -73.0817 14.6859 -15.5415 -15.277 -9.94539 -3.48748 42.6683 34.3171 57.2038 32.0956 -37.5723 -21.8049 87.5119 -2.26 -15.2014 20.0027 -12.5027 -13.1312 6.59814 -0.119755 23.716 -0.0678434 17.0549 -14.5336 8.66712 24.984 -17.0661 20.7421 -0.520383 23.0626 -0.265159 -7.35205 -0.661543 -0.806435 
-172.006 95.2342 -16.232 -2.95181 1.97562 27.0263 1.38766 17.0967 0.356911 -57.7514 -1.6313 -17.4096 46.7414 -16.9877 -72.7923 15.1909 -15.7017 -14.9681 -10.1198 -3.29255 42.8553 31.7499 56.9177 32.3273 -37.5231 -21.7124 87.3117 -1.59665 -15.7984 20.8591 -12.8901 -11.9543 7.04054 -0.153812 20.5085 -0.0271364 16.1603 -14.2106 7.62436 24.3495 -17.0689 21.549 -0.448437 21.935 -0.2543 -6.4408 0.0436239 -0.562162 
-171.418 95.4183 -16.5228 -3.31074 2.43045 28.4781 2.16638 17.0547 -0.814117 -56.2298 -1.49639 -19.2841 46.6263 -16.8533 -72.5548 15.7761 -16.377 -15.0326 -9.85332 -3.62734 42.5755 31.2108 55.9008 30.8368 -37.3977 -21.4872 86.8231 -0.97301 -16.5361 21.775 -13.4381 -10.7069 6.03403 -0.163969 18.026 -0.0371063 14.6457 -14.1942 6.01286 23.8202 -18.518 21.4145 -0.468055 22.2852 -0.211453 -5.4856 0.0766913 -1.18949 
-170.658 95.3418 -16.8739 -3.94461 2.69604 31.3351 3.55544 17.1708 -1.826 -54.9091 0.277864 -22.11 46.4304 -16.6261 -72.1556 16.8149 -16.7387 -14.9272 -8.94617 -4.50005 41.7647 33.0119 54.1523 27.3538 -37.0847 -20.9356 85.6178 -0.574099 -17.8647 22.5142 -13.9879 -9.38443 3.58879 -0.162249 16.445 -0.0516038 13.5899 -14.39 4.53913 23.442 -21.2683 19.8594 -0.592426 24.1049 -0.150919 -5.07903 -0.625409 -1.9424 
-169.684 94.9751 -17.2514 -4.62241 2.4423 34.7315 5.46921 17.5487 -1.3902 -54.5322 4.43451 -24.9634 45.8238 -15.9398 -70.9334 17.8944 -18.0622 -14.7779 -7.46349 -5.46055 39.8691 35.6373 52.2947 23.9132 -36.4205 -19.8397 83.1841 -0.867871 -20.332 22.6055 -14.5455 -7.9231 0.262463 -0.159756 15.9573 -0.0308938 14.0945 -14.5937 3.81628 23.233 -24.4968 17.399 -0.866233 27.4194 -0.0436477 -5.33404 -2.20967 -2.69705 
-168.403 94.4051 -17.6423 -5.03499 1.84319 38.3968 7.86638 18.1596 -0.759332 -56.631 10.253 -24.0399 44.8946 -14.9402 -69.1044 19.0358 -21.5631 -14.5018 -5.80713 -6.74511 38.342 34.2172 50.664 27.3492 -35.4006 -18.3336 79.7383 -2.48629 -20.5064 21.6817 -15.3818 -5.7987 -3.73243 -0.157408 15.6842 -0.00235804 14.9045 -14.8531 2.71261 22.7013 -27.8902 14.9937 -1.19219 31.9283 0.138182 -5.17722 -4.43331 -3.92601 
-166.797 93.6683 -17.992 -5.20789 1.32093 41.7764 10.3443 18.7591 0.538367 -62.2149 17.8369 -18.1644 42.7967 -12.8866 -65.1343 18.9927 -25.5056 -14.3191 -4.14287 -8.52018 35.8576 29.3961 46.7742 39.0567 -34.8653 -17.5977 78.0026 -3.71262 -19.4993 22.0423 -16.5597 -3.24014 -8.06174 -0.151458 15.1638 0.0483589 16.2401 -14.9274 1.57051 21.8303 -31.0426 14.1381 -1.2987 36.803 0.234353 -5.19373 -6.78021 -4.95004 
-164.664 92.6593 -18.1236 -5.70166 1.50693 44.2514 12.2665 18.3404 3.85352 -70.2298 26.1525 -9.9125 37.6507 -8.83146 -56.0611 17.3912 -27.2972 -13.5627 -2.64064 -10.533 31.6084 26.0012 38.9279 54.9445 -35.4341 -18.3838 79.8544 -5.40457 -16.8928 22.9799 -17.8958 -0.487923 -11.8872 -0.121703 12.8563 0.185522 19.687 -14.4592 2.27986 21.6828 -34.2403 16.7728 -1.43039 42.4864 0.352105 -5.44662 -9.82815 -6.36473 
-161.669 91.3398 -17.7927 -6.77099 1.97483 46.5813 13.4821 16.6491 8.39326 -78.9856 33.243 -0.348048 29.0613 -4.43384 -42.136 12.865 -23.0857 -13.8714 -0.713841 -14.016 27.5318 24.8589 29.3562 71.5407 -35.7939 -18.8939 81.0354 -8.08739 -12.9991 22.3177 -18.6275 3.11998 -15.3701 -0.064534 8.68991 0.359983 23.1181 -13.2358 2.88632 22.0381 -37.2597 22.2893 -1.70998 51.2645 0.778286 -2.11117 -16.2643 -4.91511 
-157.716 89.8304 -16.8266 -7.81752 2.62272 49.4422 12.5085 13.7467 12.182 -88.591 34.0622 15.1057 23.4593 -2.83692 -33.4822 8.75554 -16.7637 -12.8112 2.95825 -20.9157 24.2693 25.675 22.1876 84.4465 -35.648 -18.6834 80.5502 -11.4545 -9.87533 21.1248 -19.1595 6.5831 -16.3629 -0.0311518 6.47764 0.400059 23.5023 -14.2002 0.344348 22.1289 -38.6497 28.48 -2.49238 64.1732 1.92591 6.79509 -23.9982 3.19628 
-153.104 88.2189 -15.6828 -8.49168 3.37397 51.7201 9.19667 10.618 14.2983 -95.1598 24.5488 33.1735 25.5263 -3.32057 -36.6507 7.76148 -21.2494 -12.5151 6.402 -28.8868 21.0714 27.2124 18.404 89.7774 -35.2 -18.0592 79.0957 -13.8558 -6.6918 21.1908 -20.9607 5.66341 -15.6418 -0.129028 14.1653 0.141199 19.1539 -19.9641 -3.17291 21.4655 -35.8191 34.1456 -4.62704 75.8995 4.18709 11.6821 -27.9205 9.91407 
-148.339 87.0256 -14.5492 -8.06324 3.46756 56.0146 5.50617 7.58093 13.0175 -94.6331 15.4882 40.0801 26.7045 -3.65068 -38.4684 7.60982 -23.0563 -11.426 6.03525 -31.1815 14.7037 27.8157 17.5178 84.2393 -34.3062 -16.9014 76.3252 -15.913 -5.70003 19.8992 -21.4641 4.45633 -10.5631 -0.0603365 26.0575 -0.488247 8.66521 -23.6682 -16.5794 16.6537 -28.0761 34.6549 -6.36438 79.5611 5.9149 12.3903 -30.0223 13.5363 
-143.976 86.6546 -13.7854 -8.30146 2.853 63.6652 3.52236 5.15755 7.06606 -93.804 16.9318 36.9951 27.7704 -3.98428 -40.1216 10.2823 -25.0928 -10.7746 1.0413 -30.946 8.5117 29.3725 24.1964 72.3312 -32.7559 -15.1246 71.8504 -12.5655 -3.88699 19.5195 -17.665 -1.89095 -2.17193 -0.0366183 45.8581 -1.17673 -0.121672 -13.2112 -34.0343 9.4949 -17.5001 30.3785 -2.75262 66.586 2.42525 13.1109 -40.857 13.9634 
-140.915 86.048 -12.9339 -8.71145 2.44003 72.9181 0.22167 4.96492 0.991011 -89.0545 27.678 22.7301 30.3154 -4.91974 -44.1082 12.2039 -27.5597 -11.9556 -2.95433 -30.2997 1.33416 38.8906 34.6489 54.0124 -29.108 -11.8086 62.4204 -10.5404 -6.0863 18.5904 -13.3859 -14.7529 0.750886 1.11969 70.8894 -2.68749 1.79454 -7.88566 -22.9544 6.58592 -11.323 24.8681 -1.88904 56.2532 1.41639 8.18012 -47.1351 8.2672 
-139.04 85.5011 -11.5094 -6.93473 2.9957 83.775 -5.07709 10.6474 -3.86896 -70.1575 41.8104 -9.47449 32.2187 -5.75337 -47.1341 14.4542 -30.7654 -14.6299 -4.18431 -30.2795 -5.52175 55.3511 40.3104 33.0604 -21.074 -7.34599 44.4149 -11.2206 -10.9077 16.4197 -10.1097 -29.4022 2.00504 45.0432 88.6754 -46.6934 7.73737 -11.0061 -7.11769 5.68059 -8.76283 17.4322 -1.81134 54.6417 1.19803 4.18 -48.028 3.00779 
